<svg width="21" height="20" viewBox="0 0 21 20" fill="none" xmlns="http://www.w3.org/2000/svg">
<g id="Frame" clip-path="url(#clip0_1551_163)">
<path id="Vector" d="M8.305 8.90167C9.08695 10.2754 10.2246 11.4131 11.5983 12.195L12.335 11.1633C12.4535 10.9974 12.6286 10.8807 12.8273 10.8353C13.026 10.7898 13.2345 10.8188 13.4133 10.9167C14.5919 11.5608 15.8935 11.9481 17.2325 12.0533C17.4415 12.0699 17.6365 12.1646 17.7788 12.3186C17.921 12.4726 18 12.6745 18 12.8842V16.6025C18 16.8088 17.9235 17.0078 17.7853 17.161C17.6471 17.3142 17.4569 17.4106 17.2517 17.4317C16.81 17.4775 16.365 17.5 15.9167 17.5C8.78333 17.5 3 11.7167 3 4.58333C3 4.135 3.0225 3.69 3.06833 3.24833C3.08938 3.04308 3.18582 2.85293 3.33899 2.71469C3.49216 2.57646 3.69117 2.49996 3.8975 2.5H7.61583C7.82547 2.49997 8.02741 2.57896 8.1814 2.72121C8.33539 2.86346 8.43011 3.05852 8.44667 3.2675C8.55185 4.60649 8.93923 5.90807 9.58333 7.08667C9.68122 7.26547 9.71018 7.47395 9.66472 7.67266C9.61927 7.87137 9.50255 8.04654 9.33667 8.165L8.305 8.90167ZM6.20333 8.35417L7.78667 7.22333C7.33732 6.25341 7.02946 5.22403 6.8725 4.16667H4.675C4.67 4.305 4.6675 4.44417 4.6675 4.58333C4.66667 10.7967 9.70333 15.8333 15.9167 15.8333C16.0558 15.8333 16.195 15.8308 16.3333 15.825V13.6275C15.276 13.4705 14.2466 13.1627 13.2767 12.7133L12.1458 14.2967C11.6906 14.1198 11.2483 13.9109 10.8225 13.6717L10.7742 13.6442C9.13965 12.7139 7.78607 11.3604 6.85583 9.72583L6.82833 9.6775C6.58909 9.25166 6.38024 8.80945 6.20333 8.35417Z" fill="#8393A9"/>
</g>
<defs>
<clipPath id="clip0_1551_163">
<rect width="20" height="20" fill="white" transform="translate(0.5)"/>
</clipPath>
</defs>
</svg>
