<svg width="20" height="20" viewBox="0 0 20 20" fill="none" xmlns="http://www.w3.org/2000/svg">
<g clip-path="url(#clip0_112_216)">
<path d="M9.9974 18.3332C5.3949 18.3332 1.66406 14.6023 1.66406 9.99984C1.66406 5.39734 5.3949 1.6665 9.9974 1.6665C14.5999 1.6665 18.3307 5.39734 18.3307 9.99984C18.3307 14.6023 14.5999 18.3332 9.9974 18.3332ZM9.9974 16.6665C11.7655 16.6665 13.4612 15.9641 14.7114 14.7139C15.9617 13.4636 16.6641 11.7679 16.6641 9.99984C16.6641 8.23173 15.9617 6.53603 14.7114 5.28579C13.4612 4.03555 11.7655 3.33317 9.9974 3.33317C8.22929 3.33317 6.53359 4.03555 5.28335 5.28579C4.03311 6.53603 3.33073 8.23173 3.33073 9.99984C3.33073 11.7679 4.03311 13.4636 5.28335 14.7139C6.53359 15.9641 8.22929 16.6665 9.9974 16.6665ZM10.8307 9.99984H14.1641V11.6665H9.16406V5.83317H10.8307V9.99984Z" fill="black"/>
</g>
<defs>
<clipPath id="clip0_112_216">
<rect width="20" height="20" fill="white"/>
</clipPath>
</defs>
</svg>
