<svg width="21" height="15" viewBox="0 0 21 15" fill="none" xmlns="http://www.w3.org/2000/svg">
<path d="M9.9483 8.20885C9.9694 8.18775 9.99065 8.16649 10.0118 8.16649C9.50396 7.34138 8.65773 6.83359 7.62102 6.85482C7.4941 6.85482 7.36718 6.93938 7.32483 7.06645L6.28812 10.1554L5.92847 8.3148H5.99193C6.11885 8.3148 6.22466 8.20899 6.22466 8.08207V7.44733C6.22466 7.32042 6.11885 7.2146 5.99193 7.2146H5.16682C5.03991 7.2146 4.93409 7.32042 4.93409 7.44733V8.08207C4.93409 8.20899 5.03991 8.3148 5.16682 8.3148H5.23028L4.87064 10.1554L3.83393 7.06645C3.79157 6.93953 3.68576 6.85482 3.53774 6.85482C2.12024 6.81246 1.06241 7.80683 0.744987 9.20321L0.0258497 12.1863C-0.122319 12.8634 0.385494 13.498 1.06256 13.498H7.93847V13.4769L8.63664 10.4725C8.84812 9.56289 9.29246 8.78013 9.94832 8.20886L9.9483 8.20885Z" fill="#F88341"/>
<path d="M8.86923 3.3004C8.86923 5.12327 7.39155 6.60095 5.56883 6.60095C3.74596 6.60095 2.26843 5.12327 2.26843 3.3004C2.26843 1.47768 3.74596 0 5.56883 0C7.39155 0 8.86923 1.47768 8.86923 3.3004Z" fill="#F88341"/>
<path d="M20.081 13.7094L19.404 10.7262C19.0867 9.32986 18.0288 8.3355 16.6112 8.37785C16.4843 8.37785 16.3574 8.46242 16.315 8.58948L15.2783 11.6784L14.9187 9.83784H14.9821C15.109 9.83784 15.2148 9.73202 15.2148 9.6051V8.97037C15.2148 8.84345 15.109 8.73764 14.9821 8.73764H14.157C14.0301 8.73764 13.9243 8.84345 13.9243 8.97037V9.6051C13.9243 9.73202 14.0301 9.83784 14.157 9.83784H14.2205L13.8608 11.6784L12.7819 8.5684C12.7395 8.44148 12.6337 8.35677 12.4857 8.35677C11.0682 8.31442 10.0104 9.30878 9.69293 10.7052L9.01584 13.6883C8.86767 14.3654 9.37548 15 10.0526 15H19.023C19.7213 15 20.229 14.3654 20.081 13.7094L20.081 13.7094Z" fill="#F88341"/>
<path d="M17.8425 4.82359C17.8425 6.64646 16.365 8.12399 14.5421 8.12399C12.7194 8.12399 11.2417 6.64646 11.2417 4.82359C11.2417 3.00087 12.7194 1.52319 14.5421 1.52319C16.365 1.52319 17.8425 3.00087 17.8425 4.82359Z" fill="#F88341"/>
</svg>
