<svg width="19" height="18" viewBox="0 0 19 18" fill="none" xmlns="http://www.w3.org/2000/svg">
<path d="M7.40681 8.22239C7.85998 8.67659 8.46701 8.94445 9.10785 8.9729V9.51496H9.11086C9.11706 9.78483 9.33771 10.0001 9.60758 10.0001C9.87745 10.0001 10.0979 9.78481 10.1041 9.51496H10.1071V8.94912C10.5483 8.91781 10.9614 8.72161 11.2648 8.39969C11.568 8.07776 11.739 7.65372 11.7441 7.21139C11.7739 6.74952 11.6088 6.29631 11.2891 5.96168C10.9713 5.69482 10.5771 5.53545 10.1629 5.50683L9.46719 5.40773H9.46736C9.26613 5.3868 9.07579 5.30578 8.92127 5.17519C8.8071 5.0647 8.74415 4.91152 8.7475 4.75265C8.7475 4.34835 9.04482 4.00852 9.65736 4.00852C10.0985 3.97454 10.5346 4.12035 10.8666 4.41282L10.8677 4.41148V4.41165C10.9638 4.51125 11.0964 4.5675 11.2349 4.5675C11.3733 4.5675 11.5057 4.51125 11.602 4.41165C11.6981 4.31204 11.7497 4.17761 11.7448 4.03932C11.7398 3.90087 11.679 3.77047 11.5759 3.67789C11.1759 3.2992 10.6566 3.07154 10.107 3.03404V2.47253C10.086 2.21053 9.87033 2.0068 9.60767 2.00024C9.34668 2.00091 9.12922 2.2003 9.10595 2.46027L9.10796 3.07047V3.07064C8.69445 3.12873 8.3166 3.33615 8.04574 3.65388C7.77471 3.97163 7.62956 4.37761 7.6376 4.79512C7.61299 5.22302 7.76583 5.64206 8.06014 5.95359C8.37923 6.23401 8.7795 6.40544 9.20254 6.44293L9.91418 6.54204C10.106 6.55158 10.2895 6.62407 10.436 6.74829C10.5644 6.88071 10.6305 7.06152 10.618 7.24565C10.618 7.71691 10.254 7.97353 9.5745 7.97353C9.0582 8.00685 8.55013 7.83123 8.16425 7.48655C8.06748 7.3856 7.93439 7.32751 7.7946 7.325C7.65482 7.32265 7.51988 7.37589 7.4196 7.47332C7.31933 7.57075 7.26207 7.70418 7.26057 7.84397C7.25889 7.98375 7.31313 8.11835 7.41123 8.21813L7.40681 8.22239Z" fill="#4499FE"/>
<path d="M17.9878 5.71422L15.5021 4.33324V2.00005C15.5021 1.46953 15.2913 0.960942 14.9163 0.585771C14.5411 0.210771 14.0325 0 13.502 0H5.50231C4.97179 0 4.4632 0.210771 4.08803 0.585771C3.71303 0.960937 3.50226 1.46953 3.50226 2.00005V4.33324L1.01655 5.71422C0.860689 5.80077 0.730776 5.9275 0.640378 6.08119C0.549975 6.23503 0.502262 6.40998 0.502262 6.58844V15C0.502262 15.7957 0.818333 16.5588 1.381 17.1213C1.9435 17.6839 2.70657 18 3.50226 18H15.5022C16.2979 18 17.061 17.6839 17.6235 17.1213C18.1862 16.5588 18.5022 15.7957 18.5022 15V6.58844C18.5022 6.40998 18.4545 6.23504 18.3641 6.08119C18.2737 5.9275 18.1438 5.80077 17.988 5.71422H17.9878ZM15.837 8.92096L9.83705 11.921C9.62628 12.0263 9.37801 12.0263 9.16707 11.921L3.16707 8.92096C2.98912 8.83207 2.85385 8.67621 2.79074 8.48755C2.72779 8.29888 2.74236 8.09296 2.83108 7.91502C2.91998 7.73706 3.07584 7.60163 3.2645 7.53868C3.45317 7.47573 3.65908 7.4903 3.83702 7.57903L4.502 7.91167V1.99997C4.50233 1.73479 4.6078 1.48067 4.7953 1.29317C4.9828 1.10567 5.23694 1.0002 5.5021 0.999861H13.5022H13.5021C13.7672 1.0002 14.0214 1.10567 14.2089 1.29317C14.3964 1.48067 14.5018 1.73481 14.5022 1.99997V7.91167L15.1671 7.5792V7.57903C15.3451 7.4903 15.551 7.47573 15.7397 7.53868C15.9283 7.60163 16.0842 7.73706 16.1731 7.91502C16.2618 8.09297 16.2764 8.29889 16.2134 8.48755C16.1503 8.67622 16.015 8.83208 15.8371 8.92096H15.837Z" fill="#4499FE"/>
</svg>
