<svg width="21" height="20" viewBox="0 0 21 20" fill="none" xmlns="http://www.w3.org/2000/svg">
<g id="Frame" clip-path="url(#clip0_1551_158)">
<path id="Vector" d="M10.5 14.1667C13.5517 14.1667 16.2208 15.4792 17.6725 17.4376L16.1375 18.1634C14.9558 16.7634 12.8725 15.8334 10.5 15.8334C8.12751 15.8334 6.04417 16.7634 4.86251 18.1634L3.32834 17.4367C4.78001 15.4784 7.44834 14.1667 10.5 14.1667ZM10.5 1.66675C11.6051 1.66675 12.6649 2.10573 13.4463 2.88714C14.2277 3.66854 14.6667 4.72835 14.6667 5.83341V8.33341C14.6666 9.40713 14.2521 10.4394 13.5095 11.2149C12.7669 11.9904 11.7535 12.4493 10.6808 12.4959L10.5 12.5001C9.39494 12.5001 8.33513 12.0611 7.55373 11.2797C6.77233 10.4983 6.33334 9.43848 6.33334 8.33341V5.83341C6.3334 4.7597 6.74796 3.72745 7.49055 2.95193C8.23315 2.17642 9.24646 1.71751 10.3192 1.67091L10.5 1.66675ZM10.5 3.33341C9.86233 3.33338 9.24874 3.57702 8.78479 4.01448C8.32083 4.45195 8.04158 5.05017 8.00417 5.68675L8.00001 5.83341V8.33341C7.99938 8.98417 8.25252 9.60952 8.70565 10.0766C9.15877 10.5437 9.77617 10.8157 10.4266 10.8347C11.0771 10.8538 11.7094 10.6186 12.1891 10.1789C12.6689 9.73918 12.9583 9.12975 12.9958 8.48008L13 8.33341V5.83341C13 5.17037 12.7366 4.53449 12.2678 4.06565C11.7989 3.59681 11.163 3.33341 10.5 3.33341Z" fill="#8393A9"/>
</g>
<defs>
<clipPath id="clip0_1551_158">
<rect width="20" height="20" fill="white" transform="translate(0.5)"/>
</clipPath>
</defs>
</svg>
