<svg width="25" height="28" viewBox="0 0 25 28" fill="none" xmlns="http://www.w3.org/2000/svg">
<path d="M13.963 9.98078H17.8822C19.6145 9.98078 21.2762 9.29244 22.5012 8.06737C23.7263 6.84231 24.4144 5.18097 24.4144 3.44852V0.399902H17.8822C16.1498 0.399902 14.4881 1.08825 13.2633 2.31331C12.0382 3.53842 11.3499 5.19971 11.3499 6.93216V9.54522C10.2207 8.69439 8.84439 8.23566 7.4307 8.23869H0.898438V11.287C0.898438 13.0197 1.58648 14.6811 2.81161 15.9061C4.03674 17.1311 5.69832 17.8193 7.4307 17.8193H11.3499V27.3999H13.963V23.916H17.8822C19.6145 23.916 21.2762 23.2276 22.5012 22.0025C23.7264 20.7778 24.4144 19.1161 24.4144 17.3837V14.3354H17.8822C16.4684 14.332 15.092 14.7907 13.963 15.6416V9.98078ZM13.963 6.93247V6.93217C13.963 5.89268 14.3758 4.89597 15.1109 4.16086C15.8457 3.42574 16.8427 3.01289 17.8822 3.01289H21.8014V3.4485H21.8017C21.8017 4.48798 21.3886 5.4847 20.6538 6.21981C19.9186 6.95493 18.9217 7.36778 17.8821 7.36778H13.9629L13.963 6.93247ZM7.4307 15.2067C6.39121 15.2067 5.39419 14.7935 4.65907 14.0587C3.92426 13.3236 3.51111 12.3266 3.51111 11.2871V10.8518H7.43062C8.4701 10.8518 9.46713 11.2646 10.2019 11.9997C10.937 12.7346 11.3499 13.7316 11.3499 14.7711V15.2067L7.4307 15.2067ZM17.8823 16.9484H21.8015V17.3841H21.8018C21.8018 18.4235 21.3887 19.4206 20.6538 20.1554C19.9187 20.8905 18.9218 21.3033 17.8822 21.3033H13.963V20.868C13.963 19.8285 14.3758 18.8315 15.111 18.0964C15.8458 17.3616 16.8428 16.9484 17.8823 16.9484L17.8823 16.9484Z" fill="#2B2F34"/>
</svg>
