<svg width="20" height="20" viewBox="0 0 20 20" fill="none" xmlns="http://www.w3.org/2000/svg">
<path d="M5.2846 4.34272V1.51415C5.2846 1.26408 5.38393 1.02427 5.56075 0.847445C5.73758 0.670625 5.97739 0.571289 6.22746 0.571289H13.7703C14.0204 0.571289 14.2602 0.670625 14.437 0.847445C14.6138 1.02427 14.7132 1.26408 14.7132 1.51415V4.34272H18.4846C18.7347 4.34272 18.9745 4.44205 19.1513 4.61887C19.3281 4.79569 19.4275 5.03551 19.4275 5.28557V18.4856C19.4275 18.7356 19.3281 18.9755 19.1513 19.1523C18.9745 19.3291 18.7347 19.4284 18.4846 19.4284H1.51317C1.26311 19.4284 1.02329 19.3291 0.846469 19.1523C0.669649 18.9755 0.570313 18.7356 0.570312 18.4856V5.28557C0.570312 5.03551 0.669649 4.79569 0.846469 4.61887C1.02329 4.44205 1.26311 4.34272 1.51317 4.34272H5.2846ZM17.5417 11.8856H2.45603V17.5427H17.5417V11.8856ZM17.5417 6.22843H2.45603V9.99986H5.2846V8.11415H7.17031V9.99986H12.8275V8.11415H14.7132V9.99986H17.5417V6.22843ZM7.17031 2.457V4.34272H12.8275V2.457H7.17031Z" fill="black"/>
</svg>
