<svg width="14" height="19" viewBox="0 0 14 19" fill="none" xmlns="http://www.w3.org/2000/svg">
<path d="M7.0026 4.83327C8.77071 4.83327 10.4664 5.53565 11.7167 6.78589C12.9669 8.03614 13.6693 9.73183 13.6693 11.4999C13.6693 13.268 12.9669 14.9637 11.7167 16.214C10.4664 17.4642 8.77071 18.1666 7.0026 18.1666C5.23449 18.1666 3.5388 17.4642 2.28856 16.214C1.03832 14.9637 0.335938 13.268 0.335938 11.4999C0.335938 9.73183 1.03832 8.03614 2.28856 6.78589C3.5388 5.53565 5.23449 4.83327 7.0026 4.83327ZM7.0026 7.74994L5.9001 9.98327L3.43594 10.3416L5.21927 12.0791L4.79844 14.5341L7.0026 13.3749L9.20677 14.5333L8.78594 12.0791L10.5693 10.3408L8.1051 9.98244L7.0026 7.74994ZM7.83594 0.665771L12.0026 0.666605V3.1666L10.8668 4.11494C9.92422 3.62042 8.89516 3.3123 7.83594 3.20744V0.666605V0.665771ZM6.16927 0.665771V3.20744C5.11039 3.31214 4.08162 3.61998 3.13927 4.1141L2.0026 3.1666V0.666605L6.16927 0.665771Z" fill="#FF7169"/>
</svg>
