<svg width="31" height="28" viewBox="0 0 31 28" fill="none" xmlns="http://www.w3.org/2000/svg">
<path d="M2 0.5H29C29.3978 0.5 29.7794 0.658035 30.0607 0.93934C30.342 1.22064 30.5 1.60218 30.5 2V26C30.5 26.3978 30.342 26.7794 30.0607 27.0607C29.7794 27.342 29.3978 27.5 29 27.5H2C1.60218 27.5 1.22064 27.342 0.93934 27.0607C0.658035 26.7794 0.5 26.3978 0.5 26V2C0.5 1.60218 0.658035 1.22064 0.93934 0.93934C1.22064 0.658035 1.60218 0.5 2 0.5ZM3.5 3.5V24.5H27.5V3.5H3.5ZM15.5 18.5H24.5V21.5H15.5V18.5ZM10.5005 14L6.257 9.758L8.3795 7.6355L14.7425 14L8.3795 20.3645L6.257 18.242L10.5005 14Z" fill="black"/>
</svg>
